<svg width="60" height="37" viewBox="0 0 60 37" fill="none" xmlns="http://www.w3.org/2000/svg">
<path d="M4.976 10.704V36H0.56V10.704H4.976Z" fill="#F31559"/>
<path d="M19.1469 36.576C17.5149 36.576 16.2189 36.096 15.2589 35.136C14.3309 34.144 13.8669 32.768 13.8669 31.008V0.527999L18.2829 -2.86102e-06V30.912C18.2829 31.616 18.3949 32.128 18.6189 32.448C18.8749 32.768 19.2909 32.928 19.8669 32.928C20.4749 32.928 21.0189 32.832 21.4989 32.64L22.6509 35.712C21.5949 36.288 20.4269 36.576 19.1469 36.576Z" fill="black"/>
<path d="M36.5214 10.128C40.1694 10.128 42.9054 11.296 44.7294 13.632C46.5534 15.936 47.4654 19.168 47.4654 23.328C47.4654 26.016 47.0174 28.368 46.1214 30.384C45.2574 32.368 44.0094 33.904 42.3774 34.992C40.7454 36.048 38.8254 36.576 36.6174 36.576C33.3854 36.576 30.8254 35.472 28.9374 33.264C27.0494 31.024 26.1054 27.968 26.1054 24.096C26.1054 23.04 26.1374 22.288 26.2014 21.84H42.7614C42.6014 19.024 41.9934 16.976 40.9374 15.696C39.8814 14.384 38.3774 13.728 36.4254 13.728C35.2094 13.728 34.0734 13.904 33.0174 14.256C31.9934 14.608 30.9694 15.216 29.9454 16.08L27.9294 13.152C30.4254 11.136 33.2894 10.128 36.5214 10.128ZM36.6174 33.072C38.5374 33.072 40.0094 32.448 41.0334 31.2C42.0894 29.952 42.6814 27.92 42.8094 25.104H30.4254V25.488C30.4254 27.888 30.9694 29.76 32.0574 31.104C33.1774 32.416 34.6974 33.072 36.6174 33.072Z" fill="#341933"/>
<path d="M55.8995 29.904C56.8595 29.904 57.6595 30.224 58.2995 30.864C58.9395 31.504 59.2595 32.288 59.2595 33.216C59.2595 34.144 58.9395 34.944 58.2995 35.616C57.6595 36.256 56.8595 36.576 55.8995 36.576C54.9715 36.576 54.1875 36.256 53.5475 35.616C52.9075 34.944 52.5875 34.144 52.5875 33.216C52.5875 32.288 52.9075 31.504 53.5475 30.864C54.1875 30.224 54.9715 29.904 55.8995 29.904Z" fill="#00D2C1"/>
</svg>
